HIERARCHY
ROOT Hips
{
  OFFSET 5.85197 39.5295 -3.58091
  CHANNELS 6 Xposition Yposition Zposition Zrotation Xrotation Yrotation
  JOINT LeftHip
  {
    OFFSET 3.43 0 0
    CHANNELS 6 Xposition Yposition Zposition Zrotation Xrotation Yrotation
    JOINT LeftKnee
    {
      OFFSET 0 -18.47 0
      CHANNELS 6 Xposition Yposition Zposition Zrotation Xrotation Yrotation
      JOINT LeftAnkle
      {
        OFFSET 0 -17.95 0
        CHANNELS 6 Xposition Yposition Zposition Zrotation Xrotation Yrotation
        End Site
        {
          OFFSET 0 -3.12 0
        }
      }
    }
  }
  JOINT RightHip
  {
    OFFSET -3.43 0 0
    CHANNELS 6 Xposition Yposition Zposition Zrotation Xrotation Yrotation
    JOINT RightKnee
    {
      OFFSET 0 -18.47 0
      CHANNELS 6 Xposition Yposition Zposition Zrotation Xrotation Yrotation
      JOINT RightAnkle
      {
        OFFSET 0 -17.95 0
        CHANNELS 6 Xposition Yposition Zposition Zrotation Xrotation Yrotation
        End Site
        {
          OFFSET 0 -3.12 0
        }
      }
    }
  }
  JOINT Chest
  {
    OFFSET 0 4.57 0
    CHANNELS 6 Xposition Yposition Zposition Zrotation Xrotation Yrotation
    JOINT CS_BVH
    {
      OFFSET 0 6.57 0
      CHANNELS 6 Xposition Yposition Zposition Zrotation Xrotation Yrotation
      JOINT LeftCollar
      {
        OFFSET 1.06 4.19 1.76
        CHANNELS 6 Xposition Yposition Zposition Zrotation Xrotation Yrotation
        JOINT LeftShoulder
        {
          OFFSET 5.81 0 0
          CHANNELS 6 Xposition Yposition Zposition Zrotation Xrotation Yrotation
          JOINT LeftElbow
          {
            OFFSET 0 -12.08 0
            CHANNELS 6 Xposition Yposition Zposition Zrotation Xrotation Yrotation
            JOINT LeftWrist
            {
              OFFSET 0 -9.82 0
              CHANNELS 6 Xposition Yposition Zposition Zrotation Xrotation Yrotation
              End Site
              {
                OFFSET 0 -7.37 0
              }
            }
          }
        }
      }
      JOINT RightCollar
      {
        OFFSET -1.06 4.19 1.76
        CHANNELS 6 Xposition Yposition Zposition Zrotation Xrotation Yrotation
        JOINT RightShoulder
        {
          OFFSET -6.06 0 0
          CHANNELS 6 Xposition Yposition Zposition Zrotation Xrotation Yrotation
          JOINT RightElbow
          {
            OFFSET 0 -11.08 0
            CHANNELS 6 Xposition Yposition Zposition Zrotation Xrotation Yrotation
            JOINT RightWrist
            {
              OFFSET 0 -9.82 0
              CHANNELS 6 Xposition Yposition Zposition Zrotation Xrotation Yrotation
              End Site
              {
                OFFSET 0 -7.14001 0
              }
            }
          }
        }
      }
      JOINT Neck
      {
        OFFSET 0 4.05 0
        CHANNELS 6 Xposition Yposition Zposition Zrotation Xrotation Yrotation
        JOINT Head
        {
          OFFSET 0 5.19 0
          CHANNELS 6 Xposition Yposition Zposition Zrotation Xrotation Yrotation
          End Site
          {
            OFFSET 0 4.14001 0
          }
        }
      }
    }
  }
}
MOTION
Frames:	4
Frame Time:	0.0333333
17.4138 39.1027 -7.03744 0.261092 -0.0224406 0.11228 3.43 9.12756e-010 -1.60032e-011 9.39347 1.36298 -0.414511 1.57372e-008 -18.47 1.10541e-007 -0.0137282 10.6946 -0.916515 1.5558e-008 -17.95 3.38894e-008 -9.65667 -12.083 -0.828081 -3.43 -9.12749e-010 1.60023e-011 -6.51798 -2.71795 0.18838 4.27853e-008 -18.47 -1.42709e-007 -0.0248438 19.3015 0.628632 -2.59563e-008 -17.95 2.98131e-008 6.38785 -16.549 0.929258 -1.05168e-009 4.57 4.29798e-011 -0.280075 -0.013753 -0.109751 -1.67976e-009 6.57 2.67812e-010 -0.0243553 -0.0367666 0.00353711 1.06 4.19 1.76 10.0009 0.000665321 5.95733e-015 5.81 -5.77685e-010 -2.42139e-010 79.9994 -3.41444e-013 4.58369e-012 -4.70036e-009 -12.08 6.73172e-010 1.25449e-010 0.000233561 1.98606e-010 -1.10605e-009 -9.82 -1.29618e-009 -1.23896e-008 -0.00168498 -0.000434751 -1.06 4.19 1.76 -10 0.00439355 -1.45012e-014 -6.06 -5.89036e-008 -4.70616e-010 -80 3.68921e-013 -4.50332e-012 -7.10448e-009 -11.08 -5.62306e-011 1.70856e-010 -1.03195e-005 -1.96281e-010 -1.10928e-009 -9.82 1.29577e-009 5.41199e-010 1.01641e-010 -1.07168e-009 4.66962e-010 4.05 1.19922e-010 -1.28931e-013 -4.08751e-014 -2.54538e-015 3.38399e-009 5.19 -2.27068e-010 -3.95519e-013 -2.24291e-013 -0.0042472 
17.408 39.1 -7.03104 0.232787 -0.0737052 0.145841 3.43 9.12756e-010 -1.60032e-011 9.43142 1.40778 -0.373141 1.57372e-008 -18.47 1.10541e-007 -0.0213393 10.7233 -0.873195 1.5558e-008 -17.95 3.38894e-008 -9.67428 -12.083 -0.828081 -3.43 -9.12749e-010 1.60023e-011 -6.51907 -2.76559 0.162454 4.27853e-008 -18.47 -1.42709e-007 0.0639355 19.5255 0.508663 -2.59563e-008 -17.95 2.98131e-008 6.35349 -16.6588 0.929928 -1.05168e-009 4.57 4.29798e-011 -0.277218 -0.013753 -0.109751 -1.67976e-009 6.57 2.67812e-010 -0.00015157 -0.0367666 0.00353711 1.06 4.19 1.76 9.99254 0.00066532 -0.0436681 5.81 -5.77685e-010 -2.42139e-010 80.0192 -0.0390095 0.0534157 -4.70036e-009 -12.08 6.73172e-010 0.067628 0.00023356 -0.146991 -1.10605e-009 -9.82 -1.29618e-009 0.0243527 0.00327395 -0.000434751 -1.06 4.19 1.76 -9.94145 0.00735353 0.0599485 -6.06 -5.89036e-008 -4.70616e-010 -80.0574 0.0163829 -0.207797 -7.10448e-009 -11.08 -5.62306e-011 -0.0658118 -1.03195e-005 0.117175 -1.10928e-009 -9.82 1.29577e-009 -0.144974 0.0465319 0.0203482 4.66962e-010 4.05 1.19922e-010 -0.0141316 0.0644485 0.0404801 3.38399e-009 5.19 -2.27068e-010 0.157092 0.0507152 -0.0202063 
17.4022 39.1027 -7.02409 0.2333 -0.103501 0.198305 3.43 9.12756e-010 -1.60032e-011 9.45309 1.44862 -0.380584 1.57372e-008 -18.47 1.10541e-007 -0.0169428 10.6994 -1.00648 1.5558e-008 -17.95 3.38894e-008 -9.67282 -12.083 -0.828081 -3.43 -9.12749e-010 1.60023e-011 -6.51716 -2.60538 0.126934 4.27853e-008 -18.47 -1.42709e-007 0.0401638 19.303 0.535056 -2.59563e-008 -17.95 2.98131e-008 6.35749 -16.5656 0.931142 -1.05168e-009 4.57 4.29798e-011 -0.283202 -0.013753 -0.109751 -1.67976e-009 6.57 2.67812e-010 -0.0504671 -0.0249916 -0.000471347 1.06 4.19 1.76 9.86795 0.0129687 -0.0621788 5.81 -5.77685e-010 -2.42139e-010 80.2281 -0.112811 0.0498955 -4.70036e-009 -12.08 6.73172e-010 0.0058071 0.000233561 0.0462898 -1.10605e-009 -9.82 -1.29618e-009 -0.0518654 0.0837123 -0.00673091 -1.06 4.19 1.76 -10.374 0.0344915 -0.0710298 -6.06 -5.89036e-008 -4.70616e-010 -79.7921 -0.080586 0.622806 -7.10448e-009 -11.08 -5.62306e-011 0.223683 -0.0252077 -0.648319 -1.10928e-009 -9.82 1.29577e-009 -0.143424 -0.163542 0.0237402 4.66962e-010 4.05 1.19922e-010 0.108994 0.0482162 0.0134324 3.38399e-009 5.19 -2.27068e-010 0.293796 0.288392 -0.0814788 
17.3992 39.102 -7.02104 0.253437 0.00073444 0.295446 3.43 9.12756e-010 -1.60032e-011 9.45 1.31385 -0.404194 1.57372e-008 -18.47 1.10541e-007 -0.0351665 10.7101 -1.0189 1.5558e-008 -17.95 3.38894e-008 -9.66931 -12.083 -0.828081 -3.43 -9.12749e-010 1.60023e-011 -6.50707 -2.73906 0.12468 4.27853e-008 -18.47 -1.42709e-007 0.0224454 19.3811 0.366855 -2.59563e-008 -17.95 2.98131e-008 6.38851 -16.5957 0.934039 -1.05168e-009 4.57 4.29798e-011 -0.285986 -0.0550062 -0.128811 -1.67976e-009 6.57 2.67812e-010 -0.0393427 -0.107256 -0.0381249 1.06 4.19 1.76 9.89885 -0.106109 -0.12299 5.81 -5.77685e-010 -2.42139e-010 80.2113 -0.0884098 -0.00393978 -4.70036e-009 -12.08 6.73172e-010 -0.0362408 0.00023356 0.147263 -1.10605e-009 -9.82 -1.29618e-009 -0.0731023 0.0598627 -0.0111679 -1.06 4.19 1.76 -10.0606 -0.0745465 0.0333483 -6.06 -5.89036e-008 -4.70616e-010 -80.0531 0.0420929 0.0360388 -7.10448e-009 -11.08 -5.62306e-011 0.0202375 0.00375927 -0.0928535 -1.10928e-009 -9.82 1.29577e-009 0.116139 -0.194586 -0.0136058 4.66962e-010 4.05 1.19922e-010 0.118734 0.178219 -0.144577 3.38399e-009 5.19 -2.27068e-010 0.0487654 0.179555 -0.0355685 
